<svg width="29" height="29" viewBox="0 0 29 29" fill="none" xmlns="http://www.w3.org/2000/svg">
<g clip-path="url(#clip0_175_18)">
<path fill-rule="evenodd" clip-rule="evenodd" d="M12.4851 2.61211C12.4416 1.22015 13.5291 0.0456845 14.9357 0.0021858C15.9507 -0.0413129 16.9513 0.567669 17.3573 1.53914L24.7091 18.0542L18.0533 24.7095L1.53707 17.3582C0.580027 16.9522 0 15.9952 0 14.9512C0.043502 13.5448 1.21806 12.4428 2.61012 12.4863C2.95814 12.5008 3.29165 12.5878 3.62517 12.7183L4.50971 13.1243H4.52421C4.65471 13.1823 4.79972 13.1533 4.90123 13.0518C5.07523 12.9213 5.07523 12.6893 4.91573 12.5443L4.08919 11.9063C3.48016 11.4279 3.10314 10.7029 3.08864 9.93439C3.05964 8.52793 4.17619 7.36797 5.56826 7.33897C6.16278 7.32447 6.75731 7.52746 7.25033 7.90445L8.01887 8.51343C8.13487 8.61493 8.30888 8.61493 8.43939 8.51343C8.59889 8.39744 8.6424 8.16545 8.52639 7.97695H8.51189L7.90286 7.25197C7.52585 6.75899 7.32284 6.179 7.33734 5.57002C7.36634 4.17806 8.52639 3.0616 9.93296 3.0906C10.7015 3.10509 11.4265 3.48208 11.905 4.09107L12.5141 4.88854C12.6156 5.00454 12.7606 5.07704 12.8911 5.00454C13.0941 4.94654 13.1956 4.74355 13.1376 4.55505L12.7171 3.62708C12.5721 3.29359 12.4996 2.9601 12.4851 2.61211ZM17.5313 6.83148C17.2993 6.2805 16.7483 5.93251 16.1392 5.94701C15.1097 5.97601 14.4427 7.06348 14.8777 7.97695L16.2262 11.0364L21.954 16.7492L17.5313 6.83148ZM12.4126 10.3694C12.1371 10.0794 11.7745 9.93439 11.383 9.93439C10.9915 9.93439 10.6145 10.0794 10.339 10.3694C9.77345 10.9349 9.78795 11.8628 10.368 12.4138L17.3428 19.3881C17.9518 19.9826 18.8509 19.9681 19.4309 19.3881C19.9819 18.8081 19.9674 17.8947 19.3874 17.3437L12.4126 10.3694ZM7.97537 14.8787C7.83036 14.8063 7.62735 14.7483 7.43884 14.7483C5.84377 14.7048 5.35075 16.8942 6.82981 17.5322L16.7773 21.9545L11.064 16.2417L7.97537 14.8787Z" fill="#D4D4D4"/>
<path d="M26.5072 20.3596L20.3589 26.5074L21.5915 27.7399C22.6935 28.8273 24.2886 29.2478 25.7822 28.8563C27.2758 28.4503 28.4503 27.2759 28.8563 25.7824C29.2478 24.289 28.8273 22.694 27.7398 21.592L26.5072 20.3596Z" fill="#EDA4A4"/>
</g>
<defs>
<clipPath id="clip0_175_18">
<rect width="29" height="29" fill="white"/>
</clipPath>
</defs>
</svg>
