<svg width="29" height="29" viewBox="0 0 29 29" fill="none" xmlns="http://www.w3.org/2000/svg">
<path d="M2.6245 6.20601C0.9715 8.55501 0 11.4115 0 14.5C0 17.5885 0.9715 20.445 2.6245 22.794C6.1335 21.6775 8.7 18.386 8.7 14.5C8.7 10.614 6.1335 7.32251 2.6245 6.20601Z" fill="#69A1D5"/>
<path d="M26.3755 6.20601C22.8665 7.32251 20.3 10.614 20.3 14.5C20.3 18.386 22.8665 21.6775 26.3755 22.794C28.0285 20.445 29 17.5885 29 14.5C29 11.4115 28.0285 8.55501 26.3755 6.20601Z" fill="#69A1D4"/>
<path d="M17.3998 14.5C17.3998 9.744 20.2563 5.6695 24.3453 3.8715C21.7643 1.479 18.3133 0 14.4998 0C10.6863 0 7.2353 1.479 4.6543 3.8715C8.7433 5.6695 11.5998 9.744 11.5998 14.5C11.5998 19.256 8.7433 23.3305 4.6543 25.1285C7.2353 27.521 10.6863 29 14.4998 29C18.3133 29 21.7643 27.521 24.3453 25.1285C20.2563 23.3305 17.3998 19.256 17.3998 14.5Z" fill="#D4D4D4"/>
</svg>
