<svg width="29" height="29" viewBox="0 0 29 29" fill="none" xmlns="http://www.w3.org/2000/svg">
<path d="M21.9177 13.0427H29.0001C28.767 10.6965 27.9655 8.51054 26.7559 6.63065C24.2348 7.84019 22.3986 10.201 21.9177 13.0427Z" fill="#D4D4D4"/>
<path d="M7.08241 13.0427C6.60151 10.201 4.76533 7.84019 2.24422 6.63065C1.03467 8.51054 0.233166 10.6965 0 13.0427H7.08241Z" fill="#D4D4D4"/>
<path d="M18.9739 13.0427C19.4402 9.26834 21.7136 6.06231 24.8904 4.29899C22.5588 1.92362 19.4402 0.349749 15.9573 0V13.0427H18.9739Z" fill="#D4D4D4"/>
<path d="M10.026 13.0427H13.0425V0C9.55963 0.349749 6.42646 1.92362 4.10938 4.29899C7.28626 6.06231 9.55963 9.26834 10.026 13.0427Z" fill="#C3632D"/>
<path d="M18.9739 15.9573H15.9573V29C19.4402 28.6503 22.5734 27.0764 24.8904 24.701C21.7136 22.9377 19.4402 19.7317 18.9739 15.9573Z" fill="#C3632D"/>
<path d="M2.24422 22.3694C4.75075 21.1598 6.60151 18.7844 7.08241 15.9573H0C0.233166 18.3035 1.03467 20.4895 2.24422 22.3694Z" fill="#D4D4D4"/>
<path d="M21.9177 15.9573C22.3986 18.799 24.2348 21.1598 26.7559 22.3694C27.9655 20.4895 28.767 18.3035 29.0001 15.9573H21.9177Z" fill="#D4D4D4"/>
<path d="M10.026 15.9573C9.55963 19.7317 7.28626 22.9377 4.10938 24.701C6.44103 27.0764 9.55963 28.6503 13.0425 29V15.9573H10.026Z" fill="#D4D4D4"/>
</svg>
