<svg width="50" height="50" viewBox="0 0 100 100" fill="none" xmlns="http://www.w3.org/2000/svg">
<path fill-rule="evenodd" clip-rule="evenodd" d="M76.7273 64.1153C82.4506 59.126 86.0001 52.1807 86.0001 44.5C86.0001 29.3122 72.121 17 55.0001 17C46.0095 17 37.9129 20.3952 32.2505 25.819C34.4078 25.2844 36.6695 25 39.0001 25C53.9118 25 66.0001 36.6406 66.0001 51C66.0001 59.6256 61.6383 67.2702 54.9227 71.9999L55.0001 72C58.1999 72 61.2865 71.5699 64.1904 70.7714L76.488 81.5713C78.7761 83.5807 82.2562 81.297 81.3234 78.3982L76.7273 64.1153ZM62 50.5C62 62.9264 51.2548 73 38 73C36.24 73 34.5242 72.8224 32.8719 72.4852L27.0215 79.0913C25.0026 81.371 21.2642 79.5403 21.8274 76.5476L23.3719 68.339C17.6725 64.2253 14 57.7647 14 50.5C14 38.0736 24.7452 28 38 28C51.2548 28 62 38.0736 62 50.5Z" fill="black"/>
</svg>
