<svg width="29" height="29" viewBox="0 0 29 29" fill="none" xmlns="http://www.w3.org/2000/svg">
<path d="M14.5 0C6.496 0 0 6.496 0 14.5C0 22.504 6.496 29 14.5 29C22.504 29 29 22.504 29 14.5C29 6.496 22.504 0 14.5 0ZM15.95 4.785L17.9075 3.4075C20.5465 4.2195 22.794 5.9595 24.2585 8.2505L23.693 10.1935L21.7355 10.8605L15.95 6.815V4.785ZM11.0925 3.4075L13.05 4.785V6.815L7.2645 10.8605L5.307 10.1935L4.7415 8.2505C6.206 5.974 8.4535 4.234 11.0925 3.4075ZM7.366 21.9095L5.713 22.0545C3.9585 20.0245 2.9 17.3855 2.9 14.5C2.9 14.326 2.9145 14.1665 2.929 13.9925L4.379 12.934L6.38 13.63L8.497 19.923L7.366 21.9095ZM18.125 25.5055C16.9795 25.8825 15.7615 26.1 14.5 26.1C13.2385 26.1 12.0205 25.8825 10.875 25.5055L9.8745 23.345L10.8025 21.75H18.212L19.14 23.3595L18.125 25.5055ZM17.7915 18.85H11.2085L9.251 13.021L14.5 9.338L19.7635 13.021L17.7915 18.85ZM23.287 22.0545L21.634 21.9095L20.4885 19.923L22.6055 13.63L24.621 12.9485L26.071 14.007C26.0855 14.1665 26.1 14.326 26.1 14.5C26.1 17.3855 25.0415 20.0245 23.287 22.0545Z" fill="#434343"/>
<path d="M14.5002 8.78788L19.9327 12.7349L17.8577 19.1212H11.1427L9.06763 12.7349L14.5002 8.78788Z" fill="#E85959"/>
</svg>
