<svg width="29" height="29" viewBox="0 0 29 29" fill="none" xmlns="http://www.w3.org/2000/svg">
<path d="M25.4325 1.96134C22.0665 -1.12352 15.9097 -0.503913 11.6949 3.35875C9.39335 5.46806 8.06994 8.46064 8.04117 10.5568C8.0124 12.6397 8.41518 15.685 6.09921 17.8075L0 23.3972L2.04266 25.2692L8.14187 19.6795C10.4578 17.557 13.7808 17.9261 16.0536 17.8998C18.3264 17.8734 21.6062 16.6606 23.9077 14.5513C28.1081 10.6886 28.7986 5.0462 25.4325 1.96134ZM12.1984 14.0767C9.99752 12.0596 10.688 7.99923 13.7232 5.21758C16.7584 2.43593 21.1746 1.80314 23.3899 3.82016C25.5908 5.83719 24.9003 9.8976 21.8651 12.6792C18.8299 15.4609 14.4137 16.0937 12.1984 14.0767Z" fill="#D4D4D4"/>
<path d="M23.2462 21.0901C24.0086 21.0901 24.7422 21.367 25.2744 21.8679C26.3965 22.8962 26.3965 24.5705 25.2744 25.5987C24.7422 26.0865 24.0086 26.3634 23.2462 26.3634C22.4838 26.3634 21.7501 26.0865 21.2179 25.5856C20.0959 24.5573 20.0959 22.883 21.2179 21.8547C21.7501 21.367 22.4838 21.0901 23.2462 21.0901ZM23.2462 18.4535C21.7789 18.4535 20.2972 18.9676 19.1752 19.9959C16.9312 22.0525 16.9312 25.3878 19.1752 27.4576C20.2972 28.4859 21.7789 29 23.2462 29C24.7134 29 26.1951 28.4859 27.3171 27.4576C29.5611 25.401 29.5611 22.0657 27.3171 19.9959C26.1951 18.9676 24.7134 18.4535 23.2462 18.4535Z" fill="#56A25E"/>
</svg>
