<svg width="29" height="29" viewBox="0 0 29 29" fill="none" xmlns="http://www.w3.org/2000/svg">
<path fill-rule="evenodd" clip-rule="evenodd" d="M7.82856 9.7311C7.51332 9.05426 7.19661 8.37425 6.74308 7.95235C3.7085 5.13348 4.73504 4.07244 4.73504 4.07244C4.73504 4.07244 7.57844 2.41189 8.60863 1.55786C10.3256 0.134851 10.9515 -0.319878 12.8329 0.22082C13.4613 0.400775 13.3899 0.790845 13.2779 1.40314C13.0977 2.38807 12.8123 3.94804 15.1649 6.13343C16.2024 7.09718 17.8512 7.19786 19.1505 7.19786C19.1456 4.8767 22.4858 4.36089 22.5346 6.81665C22.5358 7.0361 22.6027 8.17632 22.7891 9.74638L21.3461 10.0857C21.0282 10.1615 20.837 10.45 20.9235 10.7339C21.0063 11.0167 21.3327 11.1841 21.6505 11.1106L22.9291 10.8097C22.9729 11.1162 23.0204 11.4341 23.0728 11.761L21.7028 12.0845C21.3862 12.1592 21.1975 12.4499 21.2791 12.7327C21.3631 13.0166 21.6882 13.1851 22.0073 13.1105L23.253 12.8164C23.3066 13.1218 23.3675 13.4272 23.4308 13.736L22.0584 14.0606C21.7394 14.1364 21.5494 14.4271 21.6334 14.7111C21.7175 14.995 22.0438 15.1613 22.3616 15.0877L23.6634 14.7801C23.7377 15.0968 23.8168 15.4113 23.9021 15.7212L22.5662 16.0357C22.2472 16.1092 22.0584 16.3999 22.1424 16.6827C22.2277 16.9666 22.5528 17.1374 22.8706 17.0605L24.2028 16.746C24.299 17.0526 24.4013 17.3501 24.5085 17.6419L23.2615 17.9372C22.9425 18.0118 22.7537 18.3037 22.839 18.5864C22.923 18.8692 23.2469 19.0389 23.5648 18.9643L24.9152 18.6464C25.0492 18.9473 25.1904 19.2391 25.3402 19.5129L24.2089 19.7798C23.8899 19.8522 23.7024 20.1441 23.7839 20.4269C23.8692 20.7108 24.1955 20.8793 24.5134 20.8047L25.9405 20.4687C26.1597 20.7685 26.3923 21.0366 26.6395 21.2662C30.0893 24.4719 28.7401 26.6324 28.7401 26.6324C28.7401 26.6324 24.7898 29 20.037 24.585C19.6475 24.2232 19.4067 23.3647 19.1755 22.5404C18.9759 21.829 18.7835 21.143 18.5088 20.8239C18.2258 20.494 17.5697 20.3328 16.9235 20.174C16.2736 20.0143 15.6338 19.8571 15.3938 19.5332C14.8588 18.8091 14.3703 18.1018 13.9068 17.4309C12.9028 15.9776 12.0167 14.6949 11.0319 13.7801C10.084 12.8996 9.59202 12.3218 9.01411 11.6431C8.92091 11.5336 8.82548 11.4215 8.72553 11.3051C8.37011 10.8939 8.09988 10.3137 7.82856 9.7311Z" fill="#434343"/>
<path d="M17.0329 25.3067C12.9657 21.5297 11.8003 18.7086 8.76328 15.8852C6.60669 13.8831 5.59111 14.6794 2.54679 11.8515C-0.45369 9.06428 0.028532 7.69557 0.028532 7.69557C0.028532 7.69557 1.2012 5.46717 3.44669 5.03393C3.44669 5.03393 3.05458 6.28387 5.79934 8.83239C6.80762 9.77239 7.06455 11.511 7.88408 12.4397C8.91428 13.6082 9.96153 14.5651 10.2099 14.7959C10.6922 15.245 12.3592 18.031 14.4647 20.6836C15.0431 21.4132 16.4484 20.963 17.3726 21.8205C18.2969 22.6779 17.906 24.5647 18.5709 25.1823C24.4659 30.6583 28.3102 27.569 28.3102 27.569C28.3102 27.569 24.2175 31.9829 17.0329 25.3067Z" fill="url(#paint0_linear_145_5)"/>
<defs>
<linearGradient id="paint0_linear_145_5" x1="14.5" y1="0" x2="14.5" y2="29" gradientUnits="userSpaceOnUse">
<stop stop-color="white"/>
<stop offset="0.445" stop-color="#C1F0A4"/>
<stop offset="0.62" stop-color="#F9B857"/>
<stop offset="1" stop-color="#FF5959"/>
</linearGradient>
</defs>
</svg>
